<svg xmlns="http://www.w3.org/2000/svg" version="1.1" xlink="http://www.w3.org/1999/xlink"
     width="100%" height="100%"
     viewBox="8.000739097595215 3.0008108615875244 84.99925994873047 95.00029754638672">
    <g fill="#0a0a0a">
        <path d="M35.645 6.488c.664-2.043 1.754-3.152 3.352-3.433.668-.117 1.37-.047 2.203.234.883.3 1.457.64 3.84 2.336 3.414 2.43 3.953 2.7 5.234 2.71 1.508 0 2.176-.327 5.348-2.593 3.16-2.266 4.093-2.723 5.554-2.723 1.778-.011 3.29 1.18 4.02 3.18.281.758 1.187 4.918 1.93 8.766.28 1.507.527 2.757.539 2.77.003 0 .324.093.828.25.504.152 1.191.362 1.949.589 5.105 1.543 7.855 3.145 8.969 5.238.386.7.437.899.437 1.727 0 .797-.066 1.031-.387 1.613-.972 1.766-3.464 3.508-7.152 4.98-1.215.493-3.328 1.216-4.234 1.462-.23.058-.348.375-.77 2.066-.27 1.113-.652 2.305-.832 2.668-.37.7-1.011 1.367-1.472 1.531-.231.078-.305.219-.372.723-.164 1.285-.332 3.332-.332 4.137 0 .773-.039.89-.754 2.128-1.625 2.793-3.085 4.266-6.796 6.895-1.227.875-2.688 1.93-3.223 2.336l-1 .738.219.317c.129.175.804 1.05 1.523 1.949 1.047 1.332 2.531 3.332 3.047 4.129.05.078-.527-.328-1.293-.914l-1.383-1.063-1.074 1.004c-1.05.992-1.063 1.016-1 1.496.062.469.934 5.121 1.945 10.31.242 1.284.54 2.815.653 3.413l.207 1.063-.528 2.035a318.09 318.09 0 0 0-1.035 4.183 760.636 760.636 0 0 1-.895 3.621c-.042.165-.097.383-.164.637a592.03 592.03 0 0 0-.988 3.922c-1.012 4.043-1.32 5.2-1.37 5.074-.005-.015-.02-.086-.048-.199-.094-.387-.316-1.285-.554-2.305-.32-1.32-.844-3.445-1.165-4.73l-.109-.434a2203.39 2203.39 0 0 1-1.695-6.86l-1.215-4.968.523-2.805c.282-1.554.743-4.054 1.024-5.562.96-5.04 1.152-6.137 1.152-6.477s-.203-.593-1.434-1.8l-.64-.618-.461.328c-.266.172-.856.653-1.328 1.075-.488.41-.871.687-.871.617 0-.067.05-.149.113-.195.078-.036.41-.504.77-1.032.343-.523 1.332-1.843 2.175-2.945.856-1.086 1.547-2.031 1.547-2.102-.011-.128-1.586-1.296-2.582-1.918-.898-.55-2.074-.98-5.886-2.171-2.422-.75-3.43-1.02-3.43-.915 0 .188 2.098 8.743 3.773 15.406.262 1.055.621 2.477.875 3.489l.149.601a1516.13 1516.13 0 0 1 2.046 8.239c.23.992.989 4.043 1.665 6.777 1.996 8.008 2.585 10.426 2.675 10.93.09.457-.011.375-3.16-2.512-3.98-3.66-6.605-6.441-10.227-10.812-2.89-3.504-6.973-8.777-10.199-13.184l-2.215-3.015.477-.606c.133-.18.434-.566.809-1.047.335-.433.73-.941 1.109-1.433l1.457-1.868-8.727-.058c-4.797-.035-8.754-.082-8.777-.094-.066-.035.883-.68 2.035-1.39 1.418-.868 5.809-3.18 11.707-6.172 6.617-3.356 8.36-4.301 11.43-6.16l2.469-1.508.984.808c1.23 1.004 3.891 2.91 4.508 3.234.102.06-.297-.37-.898-.945-1.215-1.18-2.035-2.242-2.969-3.844l-.625-1.086-.066-1.394c-.024-.758-.153-2.066-.254-2.898-.192-1.508-.32-1.809-.77-1.809-.23 0-.96-.809-1.226-1.379-.141-.281-.5-1.402-.81-2.504-.304-1.086-.573-1.996-.6-2.008-.024-.023-.715-.257-1.548-.515-3.98-1.285-6.87-2.723-8.523-4.266-1.523-1.414-2.035-2.43-1.883-3.75.309-2.781 4.121-5.308 10.625-7.039.844-.219 1.559-.43 1.586-.453.04-.023.192-.727.36-1.543.742-3.813 1.867-8.941 2.109-9.68zm32.133 17.918l-.09-2.008c-.05-1.101-.125-2.421-.176-2.945l-.078-.949-.383.234c-.87.504-4.312 1.965-5.566 2.36-2.844.902-5.746 1.402-9.035 1.566-6.004.305-11.7-.629-16.434-2.71-.664-.305-1.524-.723-1.906-.958-.371-.234-.703-.398-.715-.386-.028.035-.32 5.027-.32 5.503 0 .27.14.41.906.856 2.574 1.531 6.465 2.734 10.89 3.398 1.958.293 8.923.293 10.98 0 4.122-.582 7.872-1.75 10.853-3.386zM63.34 42.113c.333-1.484.829-4.535.829-5.004 0-.105.011-.183-.02-.222-.074-.086-.36.004-1.437.293-3.188.855-6.797 1.426-10.086 1.578l-1.637.082v1.055l1.062-.07c.575-.036 1.23-.13 1.434-.188.27-.094-.14.324-1.445 1.472-1 .887-1.817 1.649-1.817 1.696 0 .054.192.09.434.09 1.012 0 3.789.82 4.492 1.324.242.172.219.172-.258.058-.281-.082-1.254-.14-2.176-.14-1.558-.012-1.699.011-2.34.3-.69.329-1.562.915-1.562 1.055 0 .035.793.094 1.766.117 1.562.036 1.804.07 2.265.301.489.27.809.586.973.961.078.152-.14.176-1.598.188-2.484.011-3.086.242-3.406 1.332-.18.617.05 1.554.512 2.03l.36.364 1.777-.012c1.523-.011 1.921-.058 2.894-.328 2.79-.758 5.195-2.219 6.898-4.148 1.098-1.25 1.715-2.477 2.086-4.184zm1.672 7.387a56 56 0 0 1 .371-1.672c.04-.094.754.281 2.008 1.05 3.48 2.141 4.813 2.852 16.738 8.895 2.867 1.45 5.145 2.688 7.09 3.871L93 62.707l-2.613.07c-1.434.035-5.426.082-8.856.094l-6.246.012.782 1.015c.422.575 1.304 1.684 1.945 2.477l1.18 1.437-.258.399c-.551.875-5.527 7.527-8.086 10.8-4.672 5.962-7.883 9.653-11.93 13.673-1.918 1.906-5.426 5.074-5.465 4.945-.023-.058.336-1.625.809-3.496a2806.68 2806.68 0 0 0 3.57-14.422c.738-3.012 1.164-4.73 2.02-8.191.183-.746.386-1.567.617-2.5 1.816-7.305 3.183-13.16 4.543-19.52z"
              fill-rule="evenodd"></path>
    </g>
</svg>